<?xml version="1.0" standalone="no"?>
<!DOCTYPE svg PUBLIC "-//W3C//DTD SVG 1.1//EN" "http://www.w3.org/Graphics/SVG/1.1/DTD/svg11.dtd">
<!--Generator: Xara Designer (www.xara.com), SVG filter version: 6.0.0.4-->
<svg stroke-width="0.501" stroke-linejoin="bevel" fill-rule="evenodd" xmlns:xlink="http://www.w3.org/1999/xlink" xmlns="http://www.w3.org/2000/svg" version="1.1" overflow="visible" width="439.5pt" height="360pt" viewBox="0 0 439.5 360">
 <defs>
	</defs>
 <g id="Document" fill="none" stroke="black" font-family="Times New Roman" font-size="16" transform="scale(1 -1)">
  <g id="Spread" transform="translate(0 -360)">
   <g id="Page background">
    <path d="M 0.001,359.999 L 0.001,0 L 439.498,0 L 439.498,359.999 L 0.001,359.999 Z" stroke-linejoin="bevel" stroke="none" stroke-width="0" marker-start="none" marker-end="none" stroke-miterlimit="79.8403193612775"/>
   </g>
   <g id="MouseOff">
    <g id="Group" stroke-linejoin="miter" stroke="none" fill="#ffd200">
     <path d="M 161.733,5.389 C 160.723,9.757 160.931,15.472 160.839,18.259 C 160.703,18.197 160.544,18.139 160.245,17.989 C 148.644,13.481 137.927,8.649 128.534,3.443 C 123.577,0.697 117.331,2.496 114.583,7.449 C 111.842,12.404 113.631,18.656 118.59,21.4 C 130.852,28.184 145.065,34.34 160.354,39.936 C 160.391,45.835 160.432,51.828 160.481,57.884 C 155.838,56.447 151.024,54.96 148.999,54.252 C 122.133,45.552 93.858,35.79 61.428,24.337 C 61.39,24.316 61.344,24.298 61.299,24.279 C 61.31,13.065 61.696,3.989 60.286,3.023 C 57.365,1.518 57.423,-3.212 57.444,22.924 C 57.151,22.822 56.838,22.709 56.503,22.592 C 55.477,22.226 53.531,21.42 50.974,20.353 C 50.764,20.228 50.555,20.109 50.341,19.987 L 50.341,20.086 C 38.832,15.277 16.31,5.868 8.249,7.074 C 4.91,7.809 2.012,10.198 0.787,13.648 C -1.118,18.987 1.666,24.857 7.001,26.765 C 24.774,33.111 42,39.256 57.58,44.753 C 57.778,56.237 57.266,67.842 57.372,79.447 C 51.103,77.261 43.952,76.667 36.596,79.832 C 26.938,83.98 19.497,93.535 13.372,107.168 C 5.387,124.968 10.477,145.182 20.14,158.781 C 30.3,173.083 47.73,183.153 65.397,174.841 C 69.981,172.681 72.22,167.562 70.926,162.842 C 70.797,162.425 70.577,161.521 70.484,161.257 C 70.122,160.284 69.692,158.318 67.002,156.134 C 63.007,153.354 61.534,148.193 61.128,145.352 C 60.649,135.956 61.212,118.866 61.226,105.555 C 67.149,110.48 72.958,116.788 78.792,122.204 C 72.722,133.046 70.376,146.565 70.172,157.09 C 70.058,162.752 74.572,167.439 80.24,167.548 C 85.901,167.656 90.588,163.146 90.698,157.479 C 90.874,148.254 93.189,137.595 97.591,130.766 C 99.697,127.495 101.914,125.667 104.053,124.825 C 105.784,124.135 108.32,123.749 112.121,124.791 L 113.499,125.223 L 113.692,125.462 C 114.124,126.066 114.895,127.494 115.552,130.268 C 116.352,133.7 116.695,138.06 116.497,142.703 C 116.3,147.323 115.581,151.819 114.528,155.459 C 113.81,157.933 113.066,159.537 112.538,160.478 L 112.264,160.923 L 110.503,161.587 C 106.923,163.378 104.582,167.192 104.85,171.432 C 105.202,176.949 109.862,181.173 115.344,181.037 C 115.103,190.049 115.086,202.941 115.168,218.054 C 115.103,220.534 114.37,222.976 113.293,224.201 C 109.55,228.47 103.197,228.166 102.739,242.593 C 102.49,247.233 105.438,251.617 110.094,252.988 L 119.01,255.69 L 117.67,259.804 C 116.846,262.212 115.925,264.748 114.953,267.324 C 111.081,277.631 106.603,288.169 104.234,293.555 C 101.27,300.296 106.182,307.891 113.541,307.955 C 114.827,307.963 116.022,307.805 117.059,307.615 C 120.795,306.884 124.661,305.001 127.711,303.396 C 130.919,301.699 134.638,299.507 137.942,297.64 C 139.843,296.562 141.626,295.581 143.307,294.709 L 146.18,293.301 L 146.61,298.521 C 147.098,314.732 143.103,331.575 142.238,349.222 C 141.796,358.277 152.527,363.421 159.308,357.398 C 168.951,348.834 182.513,330.81 193.948,316.387 L 197.737,311.671 L 198.558,312.616 C 202.085,316.865 206.844,323.447 213.317,333.743 C 218.467,341.939 231.127,339.044 232.207,329.427 C 234.253,311.205 235.864,292.861 237.586,274.809 C 237.596,274.682 237.622,273.67 237.624,273.485 C 237.749,265.855 231.428,262.598 233.025,255.054 C 233.152,254.322 234.218,246.08 231.077,246.422 C 226.517,246.9 228.546,251.964 229.233,256.524 C 229.546,258.374 228.559,262.027 226.82,262.535 C 226.738,262.551 226.665,262.558 226.6,262.561 C 226.52,262.598 226.435,262.61 226.517,262.569 C 225.123,262.653 223.654,261.87 222.386,260.668 C 221.612,259.936 221.007,258.514 220.782,256.789 C 220.85,246.866 220.939,237.137 221.045,227.649 C 223.778,228.135 226.497,228.594 229.218,229.039 C 246.703,231.899 264.393,234.201 281.503,236.846 C 287.105,237.704 292.346,233.864 293.208,228.264 C 293.294,227.701 293.332,227.14 293.328,226.585 L 293.331,226.588 C 293.131,223.864 292.608,221.942 293.731,220.209 C 294.012,219.779 294.252,218.981 296.957,219.331 C 296.967,219.329 296.976,219.325 296.976,219.327 C 299.023,219.437 301.101,219.329 303.2,218.984 L 304.6,218.602 L 305.541,218.399 C 310.226,216.881 314.512,215.136 318.357,213.162 C 316.251,216.584 314.1,219.848 311.958,222.892 C 305.07,232.652 317.817,244.354 326.952,236.667 C 334.09,230.659 340.839,225.55 347.862,221.025 L 358.442,214.772 L 358.834,217.115 C 359.978,224.184 360.554,229.25 360.93,236.736 C 361.453,247.148 375.512,250.199 380.299,240.938 C 396.094,210.403 419.324,167.118 437.795,139.203 C 440.922,134.473 439.626,128.102 434.899,124.974 C 430.176,121.848 423.804,123.147 420.677,127.873 C 408.706,145.96 394.969,170.006 382.494,192.938 L 377.205,202.769 L 376.309,197.72 C 375.153,191.147 368.098,187.403 362.006,190.136 C 359.69,191.174 357.447,192.225 355.259,193.305 L 351.023,195.492 L 355.526,185.302 C 359.962,174.676 363.619,164.07 366.096,154.327 C 367.49,148.836 364.166,143.247 358.672,141.857 C 353.182,140.459 347.596,143.787 346.198,149.281 C 344.406,156.343 341.88,163.988 338.844,171.785 C 336.616,165.377 332.62,159.658 328.291,155.057 C 311.64,137.39 279.712,125.136 263.812,142.691 C 248.712,159.379 255.253,188.377 270.843,205.53 L 270.849,205.533 L 274.683,210.437 C 273.733,209.442 272.795,208.597 271.887,208.035 C 268.452,205.887 266.184,206.426 264.237,207.739 C 264.236,207.742 264.233,207.744 264.232,207.744 C 263.377,208.232 259.88,210.779 258.621,211.293 C 254.891,212.841 251.115,211.249 249.344,207.634 C 246.012,199.462 247.011,187.467 247.46,177.81 C 253.908,160.526 258.714,142.994 264.985,126.346 C 266.98,121.045 264.292,115.119 258.988,113.126 C 253.686,111.132 247.769,113.814 245.766,119.115 C 242.781,127.039 240.173,134.927 237.666,142.677 C 237.677,142.629 237.678,142.617 237.681,142.606 C 236.728,145.383 232.731,147.021 230.965,143.842 C 230.955,143.826 230.946,143.812 230.932,143.788 C 229.639,141.286 228.194,138.674 226.852,135.718 C 220.061,120.813 212.857,110.564 204.481,104.727 C 195.41,98.408 186.114,98.042 177.761,100.311 C 168.094,102.933 159.607,108.851 151.729,112.85 C 150.706,113.227 149.721,113.751 148.735,114.278 C 146.302,115.355 143.924,116.175 141.579,116.576 C 136.727,116.815 131.316,114.835 128.415,111.384 C 128.268,111.213 127.307,109.997 126.814,109.571 C 125.075,108.073 123.027,106.814 120.663,105.975 C 114.939,103.951 109.647,103.303 104.884,103.857 C 104.314,103.828 94.828,105.603 94.027,97.129 C 94.025,97.115 93.689,69.625 93.911,57.452 C 193.217,91.651 260.111,110.128 396.27,135.774 C 401.838,136.826 407.208,133.16 408.256,127.589 C 409.308,122.022 405.637,116.653 400.07,115.605 C 360.786,108.202 327.438,101.445 297.453,94.738 C 296.172,94.531 294.444,94.195 292.379,93.754 C 292.382,87.363 292.385,81.071 292.39,74.9 C 306.968,78.149 318.724,80.733 322.178,81.476 C 327.724,82.668 333.18,79.129 334.367,73.597 C 335.097,70.182 334.394,67.198 331.831,64.435 C 330.563,63.063 329.535,62.344 326.487,61.404 C 315.914,59.134 304.142,56.648 292.412,54.115 C 292.429,35.521 292.048,15.403 291.11,14.691 C 287.137,11.675 288.474,18.904 288.501,53.288 C 288.408,53.265 288.312,53.243 288.213,53.22 C 247.526,44.361 201.82,33.548 164.978,19.791 C 165.346,10.087 165.315,8.46 164.808,5.636 C 164.26,3.001 162.07,3.569 161.733,5.389 Z M 175.766,45.283 C 189.474,49.791 203.774,53.916 218.107,57.704 C 228.02,60.324 252.901,66.031 275.968,71.221 C 275.93,76.972 275.917,83.24 275.918,89.944 C 257.982,85.599 236.409,79.973 235.495,79.735 C 232.836,78.73 186.794,66.127 171.181,61.285 C 170.552,61.022 168.003,60.215 164.813,59.226 C 164.838,53.224 164.863,47.292 164.889,41.453 C 168.462,42.658 171.644,43.836 175.766,45.283 Z M 66.407,47.855 C 66.246,57.209 66.257,69.651 66.348,83.88 C 65.61,83.414 64.865,82.964 64.116,82.543 C 63.179,82.01 62.209,81.504 61.208,81.03 C 61.266,69.464 61.079,57.516 61.12,45.995 C 62.884,46.618 64.652,47.238 66.407,47.855 Z M 90.259,56.167 C 90.179,67.244 90.274,82.471 90.4,99.191 C 90.4,99.086 90.4,99.011 90.4,98.939 C 90.424,102.404 89.31,103.532 86.519,101.087 C 81.482,96.125 75.82,90.604 69.776,86.212 C 69.797,71.504 69.808,58.638 69.812,49.05 C 76.803,51.5 83.661,53.889 90.259,56.167 Z M 288.516,74.035 C 288.52,80.187 288.524,86.487 288.525,92.91 C 285.993,92.34 283.163,91.683 280.162,90.966 C 280.167,84.219 280.169,77.922 280.171,72.164 C 283.008,72.801 285.798,73.427 288.516,74.035 Z M 54.013,100.411 C 55.151,101.049 56.207,101.732 57.354,102.551 C 57.266,119.175 57.491,134.12 57.256,145.447 C 56.493,152.157 48.456,153.914 43.545,151.865 C 43.239,151.734 42.986,151.61 42.781,151.487 C 41.066,150.47 38.95,149.311 36.746,146.71 C 30.188,137.368 27.882,124.968 32.101,115.566 C 37.457,103.632 42.107,99.809 44.709,98.69 C 46.759,97.808 49.39,97.799 54.013,100.411 Z M 192.746,121.571 C 196.628,124.28 201.974,128.648 203.52,134.746 C 204.345,137.316 204.94,140.053 205.04,142.654 C 205.033,146.096 203.797,149.629 199.383,150.932 C 197.474,151.49 191.288,152.004 186.519,151.007 C 184.421,150.678 181.693,150.079 177.434,149.144 C 177.43,149.139 177.426,149.139 177.426,149.139 C 168.623,147.097 159.182,145.118 150.82,144.504 C 146.601,144.193 141.683,144.13 136.924,145.108 C 136.955,144.587 136.983,144.081 137.002,143.582 C 137.122,140.864 137.115,137.84 136.883,134.702 C 139.095,136.475 142.026,137.327 145.044,136.814 C 160.215,134.212 173.094,122.852 183.142,120.12 C 186.782,119.133 189.565,119.355 192.746,121.571 Z M 291.9,155.916 C 299.431,158.091 307.628,163.069 313.345,169.137 C 319.308,175.455 320.747,180.833 319.932,184.286 C 319.254,187.143 316.076,192.477 303.474,197.361 C 301.905,198.129 298.767,198.29 297.05,198.347 C 296.682,198.341 296.02,198.347 295.266,198.118 C 290.381,196.58 284.495,191.573 280.115,183.143 C 274.216,171.79 274.532,161.431 279.031,156.466 C 280.176,155.191 284.052,153.643 291.9,155.916 Z M 149.317,164.978 C 155.94,165.46 164.012,167.103 172.777,169.137 C 181.186,171.091 190.49,173.487 198.325,174.999 C 202.907,175.891 208.281,176.798 213.361,176.746 C 216.503,176.691 221.407,175.658 221.576,175.601 C 225.549,174.714 225.123,178.219 224.197,180.757 C 224.14,180.902 223.131,183.222 222.715,184.153 C 221.942,185.982 221.077,187.921 220.206,189.761 C 219.986,190.186 217.725,194.149 217.34,194.797 C 214.999,198.711 212.482,201.937 209.317,203.008 C 202.022,204.341 198.355,198.438 200.027,193.953 C 200.739,191.449 200.509,188.678 199.161,186.219 C 196.442,181.249 190.202,179.42 185.233,182.136 C 180.425,184.77 170.079,184.11 158.302,178.934 C 152.836,176.528 147.949,173.512 144.381,170.505 C 142.434,168.864 141.192,167.493 140.42,166.469 L 139.812,165.551 L 140.491,165.345 C 141.961,164.978 144.685,164.635 149.317,164.978 Z M 125.686,180.871 C 125.715,193.353 125.748,206.467 125.79,219.989 C 125.597,222.952 125.129,225.809 123.93,227.477 C 123.613,227.945 123.068,228.501 122.335,228.677 C 122.269,228.692 122.203,228.704 122.127,228.712 C 121.435,228.602 120.903,228.462 120.453,227.933 C 120.367,227.894 120.239,227.716 120.093,227.5 C 119.871,227.14 119.651,226.624 119.427,225.926 C 118.479,222.933 118.645,222 118.626,219.587 C 118.645,203.345 118.655,189.636 118.655,180.545 C 120.535,180.049 122.192,179.229 123.619,178.266 C 124.257,179.151 124.944,180.025 125.686,180.871 Z M 150.038,197.72 C 156.027,200.35 163.11,202.651 170.349,203.649 C 170.176,204.039 170.024,204.446 169.902,204.864 C 168.297,210.301 171.408,216.016 176.839,217.612 C 189.912,221.479 203.301,224.425 216.718,226.882 C 216.725,234.36 216.74,242.348 216.757,250.724 C 216.63,252.882 216.529,256.56 213.617,258.374 C 213.155,258.664 212.696,258.922 212.225,259.125 C 210.997,259.634 209.875,259.551 209.358,259.456 C 207.381,259.09 198.65,257.412 198.1,257.294 C 182.672,253.495 167.343,248.946 151.892,244.228 C 140.568,240.517 130.052,234.213 129.509,213.043 C 129.532,203.484 129.572,194.11 129.622,184.868 C 135.598,190.281 143.173,194.696 150.038,197.72 Z M 242.07,203.942 C 241.653,205.872 240.476,207.734 239.262,208.608 C 238.337,209.269 237.426,209.458 236.504,209.406 C 235.992,209.359 235.536,209.167 235.228,208.804 C 234.225,207.634 235.543,204.591 235.992,203.759 C 235.984,203.764 235.98,203.77 235.972,203.785 C 238.775,198.515 241.261,193.169 243.524,187.776 C 243.056,193.57 242.868,199.29 242.07,203.942 Z M 138.653,261.648 L 166.824,270.112 C 177.316,273.143 187.917,276.011 198.602,278.517 C 198.603,280.421 198.608,282.333 198.612,284.254 L 198.612,284.258 C 198.517,285.991 196.767,286.38 195.172,286.696 C 194.718,286.774 194.288,286.869 193.87,286.988 C 193.77,287.017 193.684,287.046 193.598,287.075 C 193.593,287.075 193.593,287.075 193.591,287.078 L 193.593,287.078 C 191.863,287.646 190.309,288.636 189.068,290.044 C 182.58,297.394 174.451,307.978 166.594,317.928 L 166.098,318.547 L 166.511,315.014 C 167.603,302.757 167.685,290.044 164.143,277.099 C 162.794,272.151 157.993,268.96 152.906,269.632 C 146.19,270.514 139.264,273.614 133.337,276.745 L 134.168,274.546 C 135.178,271.861 136.167,269.151 137.074,266.502 L 138.653,261.648 Z M 206.788,280.366 C 206.795,282.528 206.805,284.704 206.809,286.883 L 206.809,286.888 C 206.919,290.513 205.501,290.464 204.219,289.538 C 202.543,288.095 200.863,286.106 200.993,281.771 C 200.993,281.762 200.992,281.758 200.992,281.751 C 200.992,280.86 200.993,279.965 200.993,279.074 C 202.921,279.517 204.862,279.947 206.788,280.366 Z M 210.853,281.219 L 216.273,282.22 L 214.948,296.207 C 214.713,297.94 212.857,298.182 211.824,296.66 C 210.853,295.35 210.417,293.635 210.409,291.462 C 210.414,287.975 210.425,284.548 210.434,281.131 C 210.569,281.162 210.71,281.19 210.853,281.219 Z M 193.593,287.078 L 193.591,287.079 L 193.591,287.078 L 193.593,287.078 Z" marker-start="none" marker-end="none"/>
    </g>
   </g>
  </g>
 </g>
</svg>
