<?xml version="1.0" standalone="no"?>
<!DOCTYPE svg PUBLIC "-//W3C//DTD SVG 1.1//EN" "http://www.w3.org/Graphics/SVG/1.1/DTD/svg11.dtd">
<!--Generator: Xara Designer (www.xara.com), SVG filter version: 6.0.0.4-->
<svg stroke-width="0.501" stroke-linejoin="bevel" fill-rule="evenodd" xmlns:xlink="http://www.w3.org/1999/xlink" xmlns="http://www.w3.org/2000/svg" version="1.1" overflow="visible" width="720pt" height="456.75pt" viewBox="0 0 720 456.75">
 <defs>
	</defs>
 <g id="Document" fill="none" stroke="black" font-family="Times New Roman" font-size="16" transform="scale(1 -1)">
  <g id="Spread" transform="translate(0 -456.75)">
   <g id="Page background">
    <path d="M 0,456.749 L 0,0 L 719.999,0 L 719.999,456.749 L 0,456.749 Z" stroke-linejoin="bevel" stroke="none" stroke-width="0" marker-start="none" marker-end="none" stroke-miterlimit="79.8403193612775"/>
   </g>
   <g id="MouseOff">
    <path d="M 301.889,52.685 C 300.879,57.053 301.087,62.768 300.995,65.555 C 300.859,65.493 300.7,65.435 300.401,65.285 C 288.8,60.777 278.083,55.945 268.69,50.739 C 263.733,47.993 257.487,49.792 254.739,54.745 C 251.998,59.7 253.787,65.952 258.746,68.696 C 271.008,75.48 285.221,81.636 300.51,87.232 C 300.547,93.131 300.588,99.124 300.637,105.18 C 295.994,103.743 291.18,102.256 289.155,101.548 C 262.289,92.848 234.014,83.086 201.584,71.633 C 201.546,71.612 201.5,71.594 201.455,71.575 C 202.134,56.152 201.852,51.285 200.442,50.319 C 197.855,48.553 197.891,56.206 197.756,59.532 C 197.424,72.552 197.579,44.084 197.6,70.22 C 197.307,70.118 196.994,70.005 196.659,69.888 C 195.633,69.522 193.687,68.716 191.13,67.649 C 190.92,67.524 190.711,67.405 190.497,67.283 L 190.497,67.382 C 178.988,62.573 156.466,53.164 148.405,54.37 C 145.066,55.105 142.168,57.494 140.943,60.944 C 139.038,66.283 141.822,72.153 147.157,74.061 C 164.93,80.407 182.156,86.552 197.736,92.049 C 197.934,103.533 197.422,115.138 197.528,126.743 C 191.259,124.557 184.108,123.963 176.752,127.128 C 167.094,131.276 159.653,140.831 153.528,154.464 C 145.543,172.264 150.633,192.478 160.296,206.077 C 170.456,220.379 187.886,230.449 205.553,222.137 C 210.137,219.977 212.376,214.858 211.082,210.138 C 210.953,209.721 210.733,208.817 210.64,208.553 C 210.278,207.58 209.848,205.614 207.158,203.43 C 203.163,200.65 201.69,195.489 201.284,192.648 C 200.805,183.252 201.368,166.162 201.382,152.851 C 207.305,157.776 213.114,164.084 218.948,169.5 C 212.878,180.342 210.532,193.861 210.328,204.386 C 210.214,210.048 214.728,214.735 220.396,214.844 C 226.057,214.952 230.744,210.442 230.854,204.775 C 231.03,195.55 233.345,184.891 237.747,178.062 C 239.853,174.791 242.07,172.963 244.209,172.121 C 245.94,171.431 248.476,171.045 252.277,172.087 L 253.655,172.519 L 253.848,172.758 C 254.28,173.362 255.051,174.79 255.708,177.564 C 256.508,180.996 256.851,185.356 256.653,189.999 C 256.456,194.619 255.737,199.115 254.684,202.755 C 253.966,205.229 253.222,206.833 252.694,207.774 L 252.42,208.219 L 250.659,208.883 C 247.079,210.674 244.738,214.488 245.006,218.728 C 245.358,224.245 250.018,228.469 255.5,228.333 C 255.259,237.345 255.242,250.237 255.324,265.35 C 255.259,267.83 254.526,270.272 253.449,271.497 C 249.706,275.766 243.353,275.462 242.895,289.889 C 242.646,294.529 245.594,298.913 250.25,300.284 L 259.166,302.986 L 257.826,307.1 C 257.002,309.508 256.081,312.044 255.109,314.62 C 251.237,324.927 246.759,335.465 244.39,340.851 C 241.426,347.592 246.338,355.187 253.697,355.251 C 254.983,355.259 256.178,355.101 257.215,354.911 C 260.951,354.18 264.817,352.297 267.867,350.692 C 271.075,348.995 274.794,346.803 278.098,344.936 C 279.999,343.858 281.782,342.877 283.463,342.005 L 286.336,340.597 L 286.766,345.817 C 287.254,362.028 283.259,378.871 282.394,396.518 C 281.952,405.573 292.683,410.717 299.464,404.694 C 309.107,396.13 322.669,378.106 334.104,363.683 L 337.893,358.967 L 338.714,359.912 C 342.241,364.161 347,370.743 353.473,381.039 C 358.623,389.235 371.283,386.34 372.363,376.723 C 374.409,358.501 376.02,340.157 377.742,322.105 C 377.752,321.978 377.778,320.966 377.78,320.781 C 377.905,313.151 371.584,309.894 373.181,302.35 C 373.308,301.618 374.374,293.376 371.233,293.718 C 366.673,294.196 368.702,299.26 369.389,303.82 C 369.702,305.67 368.715,309.323 366.976,309.831 C 366.894,309.847 366.821,309.854 366.756,309.857 C 366.676,309.894 366.591,309.906 366.673,309.865 C 365.279,309.949 363.81,309.166 362.542,307.964 C 361.768,307.232 361.163,305.81 360.938,304.085 C 361.006,294.162 361.095,284.433 361.201,274.945 C 363.934,275.431 366.653,275.89 369.374,276.335 C 386.859,279.195 404.549,281.497 421.659,284.142 C 427.261,285 432.502,281.16 433.364,275.56 C 433.45,274.997 433.488,274.436 433.484,273.881 L 433.487,273.884 C 433.287,271.16 432.764,269.238 433.887,267.505 C 434.168,267.075 434.408,266.277 437.113,266.627 C 437.123,266.625 437.132,266.621 437.132,266.623 C 439.179,266.733 441.257,266.625 443.356,266.28 L 444.756,265.898 L 445.697,265.695 C 450.382,264.177 454.668,262.432 458.513,260.458 C 456.407,263.88 454.256,267.144 452.114,270.188 C 445.226,279.948 457.973,291.65 467.108,283.963 C 474.246,277.955 480.995,272.846 488.018,268.321 L 498.598,262.068 L 498.99,264.411 C 500.134,271.48 500.71,276.546 501.086,284.032 C 501.609,294.444 515.668,297.495 520.455,288.234 C 536.25,257.699 559.48,214.414 577.951,186.499 C 581.078,181.769 579.782,175.398 575.055,172.27 C 570.332,169.144 563.96,170.443 560.833,175.169 C 548.862,193.256 535.125,217.302 522.65,240.234 L 517.361,250.065 L 516.465,245.016 C 515.309,238.443 508.254,234.699 502.162,237.432 C 499.846,238.47 497.603,239.521 495.415,240.601 L 491.179,242.788 L 495.682,232.598 C 500.118,221.972 503.775,211.366 506.252,201.623 C 507.646,196.132 504.322,190.543 498.828,189.153 C 493.338,187.755 487.752,191.083 486.354,196.577 C 484.562,203.639 482.036,211.284 479,219.081 C 476.772,212.673 472.776,206.954 468.447,202.353 C 451.796,184.686 419.868,172.432 403.968,189.987 C 388.868,206.675 395.409,235.673 410.999,252.826 L 411.005,252.829 L 414.839,257.733 C 413.889,256.738 412.951,255.893 412.043,255.331 C 408.608,253.183 406.34,253.722 404.393,255.035 C 404.392,255.038 404.389,255.04 404.388,255.04 C 403.533,255.528 400.036,258.075 398.777,258.589 C 395.047,260.137 391.271,258.545 389.5,254.93 C 386.168,246.758 387.167,234.763 387.616,225.106 C 394.064,207.822 398.87,190.29 405.141,173.642 C 407.136,168.341 404.448,162.415 399.144,160.422 C 393.842,158.428 387.925,161.11 385.922,166.411 C 382.937,174.335 380.329,182.223 377.822,189.973 C 377.833,189.925 377.834,189.913 377.837,189.902 C 376.884,192.679 372.887,194.317 371.121,191.138 C 371.111,191.122 371.102,191.108 371.088,191.084 C 369.795,188.582 368.35,185.97 367.008,183.014 C 360.217,168.109 353.013,157.86 344.637,152.023 C 335.566,145.704 326.27,145.338 317.917,147.607 C 308.25,150.229 299.763,156.147 291.885,160.146 C 290.862,160.523 289.877,161.047 288.891,161.574 C 286.458,162.651 284.08,163.471 281.735,163.872 C 276.883,164.111 271.472,162.131 268.571,158.68 C 268.424,158.509 267.463,157.293 266.97,156.867 C 265.231,155.369 263.183,154.11 260.819,153.271 C 255.095,151.247 249.803,150.599 245.04,151.153 C 244.47,151.124 234.984,152.899 234.183,144.425 C 234.181,144.411 233.845,116.921 234.067,104.748 C 333.373,138.947 400.267,157.424 536.426,183.07 C 541.994,184.122 547.364,180.456 548.412,174.885 C 549.464,169.318 545.793,163.949 540.226,162.901 C 500.942,155.498 467.594,148.741 437.609,142.034 C 436.328,141.827 434.6,141.491 432.535,141.05 C 432.538,134.659 432.541,128.367 432.546,122.196 C 447.124,125.445 458.88,128.029 462.334,128.772 C 467.88,129.964 473.336,126.425 474.523,120.893 C 475.253,117.478 474.55,114.494 471.987,111.731 C 470.719,110.359 469.691,109.64 466.643,108.7 C 456.07,106.43 444.298,103.944 432.568,101.411 C 432.587,79.879 433.851,60.532 430.296,61.05 C 427.884,61.402 428.634,71.158 428.657,100.584 C 428.564,100.561 428.468,100.539 428.369,100.516 C 387.682,91.657 341.976,80.844 305.134,67.087 C 305.502,57.383 305.471,55.756 304.964,52.932 C 304.416,50.297 302.226,50.865 301.889,52.685 Z M 315.922,92.579 C 329.63,97.087 343.93,101.212 358.263,105 C 368.176,107.62 393.057,113.327 416.124,118.517 C 416.086,124.268 416.073,130.536 416.074,137.24 C 398.138,132.895 376.565,127.269 375.651,127.031 C 372.992,126.026 326.95,113.423 311.337,108.581 C 310.708,108.318 308.159,107.511 304.969,106.522 C 304.994,100.52 305.019,94.588 305.045,88.749 C 308.618,89.954 311.8,91.132 315.922,92.579 Z M 206.563,95.151 C 206.402,104.505 206.413,116.947 206.504,131.176 C 205.766,130.71 205.021,130.26 204.272,129.839 C 203.335,129.306 202.365,128.8 201.364,128.326 C 201.422,116.76 201.235,104.812 201.276,93.291 C 203.04,93.914 204.808,94.534 206.563,95.151 Z M 230.415,103.463 C 230.335,114.54 230.43,129.767 230.556,146.487 C 230.556,146.382 230.556,146.307 230.556,146.235 C 230.58,149.7 229.466,150.828 226.675,148.383 C 221.638,143.421 215.976,137.9 209.932,133.508 C 209.953,118.8 209.964,105.934 209.968,96.346 C 216.959,98.796 223.817,101.185 230.415,103.463 Z M 428.672,121.331 C 428.676,127.483 428.68,133.783 428.681,140.206 C 426.149,139.636 423.319,138.979 420.318,138.262 C 420.323,131.515 420.325,125.218 420.327,119.46 C 423.164,120.097 425.954,120.723 428.672,121.331 Z M 194.169,147.707 C 195.307,148.345 196.363,149.028 197.51,149.847 C 197.422,166.471 197.647,181.416 197.412,192.743 C 196.649,199.453 188.612,201.21 183.701,199.161 C 183.395,199.03 183.142,198.906 182.937,198.783 C 181.222,197.766 179.106,196.607 176.902,194.006 C 170.344,184.664 168.038,172.264 172.257,162.862 C 177.613,150.928 182.263,147.105 184.865,145.986 C 186.915,145.104 189.546,145.095 194.169,147.707 Z M 332.902,168.867 C 336.784,171.576 342.13,175.944 343.676,182.042 C 344.501,184.612 345.096,187.349 345.196,189.95 C 345.189,193.392 343.953,196.925 339.539,198.228 C 337.63,198.786 331.444,199.3 326.675,198.303 C 324.577,197.974 321.849,197.375 317.59,196.44 C 317.586,196.435 317.582,196.435 317.582,196.435 C 308.779,194.393 299.338,192.414 290.976,191.8 C 286.757,191.489 281.839,191.426 277.08,192.404 C 277.111,191.883 277.139,191.377 277.158,190.878 C 277.278,188.16 277.271,185.136 277.039,181.998 C 279.251,183.771 282.182,184.623 285.2,184.11 C 300.371,181.508 313.25,170.148 323.298,167.416 C 326.938,166.429 329.721,166.651 332.902,168.867 Z M 432.056,203.212 C 439.587,205.387 447.784,210.365 453.501,216.433 C 459.464,222.751 460.903,228.129 460.088,231.582 C 459.41,234.439 456.232,239.773 443.63,244.657 C 442.061,245.425 438.923,245.586 437.206,245.643 C 436.838,245.637 436.176,245.643 435.422,245.414 C 430.537,243.876 424.651,238.869 420.271,230.439 C 414.372,219.086 414.688,208.727 419.187,203.762 C 420.332,202.487 424.208,200.939 432.056,203.212 Z M 289.473,212.274 C 296.096,212.756 304.168,214.399 312.933,216.433 C 321.342,218.387 330.646,220.783 338.481,222.295 C 343.063,223.187 348.437,224.094 353.517,224.042 C 356.659,223.987 361.563,222.954 361.732,222.897 C 365.705,222.01 365.279,225.515 364.353,228.053 C 364.296,228.198 363.287,230.518 362.871,231.449 C 362.098,233.278 361.233,235.217 360.362,237.057 C 360.142,237.482 357.881,241.445 357.496,242.093 C 355.155,246.007 352.638,249.233 349.473,250.304 C 342.178,251.637 338.511,245.734 340.183,241.249 C 340.895,238.745 340.665,235.974 339.317,233.515 C 336.598,228.545 330.358,226.716 325.389,229.432 C 320.581,232.066 310.235,231.406 298.458,226.23 C 292.992,223.824 288.105,220.808 284.537,217.801 C 282.59,216.16 281.348,214.789 280.576,213.765 L 279.968,212.847 L 280.647,212.641 C 282.117,212.274 284.841,211.931 289.473,212.274 Z M 265.842,228.167 C 265.871,240.649 265.904,253.763 265.946,267.285 C 265.753,270.248 265.285,273.105 264.086,274.773 C 263.769,275.241 263.224,275.797 262.491,275.973 C 262.425,275.988 262.359,276 262.283,276.008 C 261.591,275.898 261.059,275.758 260.609,275.229 C 260.523,275.19 260.395,275.012 260.249,274.796 C 260.027,274.436 259.807,273.92 259.583,273.222 C 258.635,270.229 258.801,269.296 258.782,266.883 C 258.801,250.641 258.811,236.932 258.811,227.841 C 260.691,227.345 262.348,226.525 263.775,225.562 C 264.413,226.447 265.1,227.321 265.842,228.167 Z M 290.194,245.016 C 296.183,247.646 303.266,249.947 310.505,250.945 C 310.332,251.335 310.18,251.742 310.058,252.16 C 308.453,257.597 311.564,263.312 316.995,264.908 C 330.068,268.775 343.457,271.721 356.874,274.178 C 356.881,281.656 356.896,289.644 356.913,298.02 C 356.786,300.178 356.685,303.856 353.773,305.67 C 353.311,305.96 352.852,306.218 352.381,306.421 C 351.153,306.93 350.031,306.847 349.514,306.752 C 347.537,306.386 338.806,304.708 338.256,304.59 C 322.828,300.791 307.499,296.242 292.048,291.524 C 280.724,287.813 270.208,281.509 269.665,260.339 C 269.688,250.78 269.728,241.406 269.778,232.164 C 275.754,237.577 283.329,241.992 290.194,245.016 Z M 382.226,251.238 C 381.809,253.168 380.632,255.03 379.418,255.904 C 378.493,256.565 377.582,256.754 376.66,256.702 C 376.148,256.655 375.692,256.463 375.384,256.1 C 374.381,254.93 375.699,251.887 376.148,251.055 C 376.14,251.06 376.136,251.066 376.128,251.081 C 378.931,245.811 381.417,240.465 383.68,235.072 C 383.212,240.866 383.024,246.586 382.226,251.238 Z M 278.809,308.944 L 306.98,317.408 C 317.472,320.439 328.073,323.307 338.758,325.813 C 338.759,327.717 338.764,329.629 338.768,331.55 L 338.768,331.554 C 338.673,333.287 336.923,333.676 335.328,333.992 C 334.874,334.07 334.444,334.165 334.026,334.284 C 333.926,334.313 333.84,334.342 333.754,334.371 C 333.749,334.371 333.749,334.371 333.747,334.374 L 333.749,334.374 C 332.019,334.942 330.465,335.932 329.224,337.34 C 322.736,344.69 314.607,355.274 306.75,365.224 L 306.254,365.843 L 306.667,362.31 C 307.759,350.053 307.841,337.34 304.299,324.395 C 302.95,319.447 298.149,316.256 293.062,316.928 C 286.346,317.81 279.42,320.91 273.493,324.041 L 274.324,321.842 C 275.334,319.157 276.323,316.447 277.23,313.798 L 278.809,308.944 Z M 346.944,327.662 C 346.951,329.824 346.961,332 346.965,334.179 L 346.965,334.184 C 347.075,337.809 345.657,337.76 344.375,336.834 C 342.699,335.391 341.019,333.402 341.149,329.067 C 341.149,329.058 341.148,329.054 341.148,329.047 C 341.148,328.156 341.149,327.261 341.149,326.37 C 343.077,326.813 345.018,327.243 346.944,327.662 Z M 351.009,328.515 L 356.429,329.516 L 355.104,343.503 C 354.869,345.236 353.013,345.478 351.98,343.956 C 351.009,342.646 350.573,340.931 350.565,338.758 C 350.57,335.271 350.581,331.844 350.59,328.427 C 350.725,328.458 350.866,328.486 351.009,328.515 Z M 333.749,334.374 L 333.747,334.375 L 333.747,334.374 L 333.749,334.374 Z" fill="#ffd200" stroke-linejoin="miter" stroke="none" marker-start="none" marker-end="none"/>
   </g>
  </g>
 </g>
</svg>
